<svg width="32" height="32" viewBox="0 0 32 32" fill="none" xmlns="http://www.w3.org/2000/svg">
<path fill-rule="evenodd" clip-rule="evenodd" d="M6.12 3C4.39687 3 3 4.39687 3 6.12V25.88C3 27.6031 4.39687 29 6.12 29H25.88C27.6031 29 29 27.6031 29 25.88V6.12C29 4.39687 27.6031 3 25.88 3H6.12ZM21.3262 9.5099C21.59 9.4691 21.8593 9.55614 22.0524 9.73837C22.2455 9.92332 22.3434 10.1844 22.3243 10.4483L21.5302 18.8445L21.5285 18.8671C21.5209 18.9707 21.5135 19.0722 21.5084 19.1736C21.4404 20.3159 20.494 21.2217 19.3354 21.2217C18.117 21.2217 17.1352 20.2235 17.1597 18.9995C17.1841 17.8245 18.1551 16.8726 19.33 16.8699C19.5557 16.8699 19.7706 16.9025 19.9745 16.9651L20.3553 12.8227L14.7283 13.6495L14.1299 20.1283C14.1191 20.2343 14.1136 20.3377 14.1082 20.4438C14.0456 21.5888 13.0965 22.5 11.9352 22.5C10.7031 22.5 9.70773 21.4746 9.76213 20.2289C9.81108 19.1029 10.7276 18.1917 11.8536 18.1509C12.0983 18.1428 12.3349 18.1754 12.558 18.2407L13.1889 11.3785C13.2243 10.9786 13.5316 10.655 13.9287 10.5978L21.3262 9.5099Z" fill="#00BECA"/>
</svg>
