<svg width="32" height="32" viewBox="0 0 32 32" fill="none" xmlns="http://www.w3.org/2000/svg">
<path fill-rule="evenodd" clip-rule="evenodd" d="M6.12 3C4.39687 3 3 4.39687 3 6.12V25.88C3 27.6031 4.39687 29 6.12 29H25.88C27.6031 29 29 27.6031 29 25.88V6.12C29 4.39687 27.6031 3 25.88 3H6.12ZM19.5438 21.0613C19.7059 21.0041 19.8965 20.8801 20.1158 20.6895C20.4399 20.413 20.5972 20.1651 20.5877 19.9459C20.5877 19.7266 20.4542 19.4692 20.1873 19.1737L17.4356 15.9604L20.1873 12.753C20.4542 12.467 20.5877 12.2096 20.5877 11.9808C20.5972 11.752 20.4399 11.4993 20.1158 11.2229C19.9061 11.0227 19.7202 10.894 19.5581 10.8368C19.396 10.7796 19.2387 10.7891 19.0862 10.8654C18.9337 10.9416 18.7668 11.0894 18.5857 11.3087L16.0188 14.3061L13.452 11.3087C13.2709 11.0894 13.104 10.9416 12.9515 10.8654C12.799 10.7891 12.6417 10.7796 12.4796 10.8368C12.3175 10.894 12.1316 11.0227 11.9219 11.2229C11.6073 11.4993 11.45 11.752 11.45 11.9808C11.45 12.2096 11.5835 12.467 11.8504 12.753L14.6021 15.9604L11.8504 19.1737C11.5835 19.4692 11.45 19.7266 11.45 19.9459C11.45 20.1651 11.6073 20.413 11.9219 20.6895C12.1412 20.8801 12.3318 21.0041 12.4939 21.0613C12.656 21.1185 12.8133 21.1089 12.9658 21.0327C13.1183 20.9564 13.2804 20.8134 13.452 20.6037L16.0188 17.6117L18.5857 20.6037C18.7668 20.8134 18.9289 20.9564 19.0719 21.0327C19.2244 21.1089 19.3817 21.1185 19.5438 21.0613Z" fill="#01AC49"/>
</svg>
