<svg width="26" height="26" viewBox="0 0 26 26" fill="none" xmlns="http://www.w3.org/2000/svg">
<path d="M9.75008 3.25C9.9882 3.24998 10.2197 3.32841 10.4087 3.47317L10.5171 3.56742L13.4486 6.5H20.5834C21.4124 6.49995 22.2101 6.81669 22.8132 7.38539C23.4163 7.9541 23.7794 8.73178 23.828 9.55933L23.8334 9.75V18.4167C23.8335 19.2456 23.5167 20.0433 22.948 20.6464C22.3793 21.2496 21.6016 21.6126 20.7741 21.6612L20.5834 21.6667H5.41675C4.58777 21.6667 3.79011 21.35 3.18697 20.7813C2.58382 20.2126 2.2208 19.4349 2.17216 18.6073L2.16675 18.4167V6.5C2.1667 5.67102 2.48343 4.87336 3.05214 4.27022C3.62084 3.66708 4.39853 3.30405 5.22608 3.25542L5.41675 3.25H9.75008Z" fill="#2D9AFF"/>
</svg>
