<svg width="32" height="32" viewBox="0 0 32 32" fill="none" xmlns="http://www.w3.org/2000/svg">
<path fill-rule="evenodd" clip-rule="evenodd" d="M6.12 3C4.39687 3 3 4.39687 3 6.12V25.88C3 27.6031 4.39687 29 6.12 29H25.88C27.6031 29 29 27.6031 29 25.88V6.12C29 4.39687 27.6031 3 25.88 3H6.12ZM12.5453 18.6665C13.0516 19.342 13.5592 20.0191 13.9699 20.0191C14.7418 20.0191 15.5952 18.7493 16.4674 17.4514C17.6555 15.6837 18.8785 13.8639 19.978 15.1301C20.6694 15.9267 21.3819 17.6701 22.0095 19.2058C22.2281 19.7407 22.4365 20.2504 22.63 20.6861V21.304C22.63 22.0373 22.0373 22.63 21.304 22.63H10.696C10.3443 22.63 10.007 22.4903 9.75838 22.2416C9.5097 21.993 9.37 21.6557 9.37 21.304V20.8677C9.62125 20.3044 9.87721 19.6704 10.109 19.0962C10.3372 18.5309 10.5421 18.0236 10.696 17.6986C11.1313 16.7801 11.8371 17.7217 12.5453 18.6665ZM13.348 11.359C13.348 12.4583 12.4583 13.348 11.359 13.348C10.2597 13.348 9.37 12.4583 9.37 11.359C9.37 10.2597 10.2597 9.37 11.359 9.37C12.4583 9.37 13.348 10.2597 13.348 11.359Z" fill="#FF3093"/>
</svg>
