<svg width="882" height="383" viewBox="0 0 882 383" fill="none" xmlns="http://www.w3.org/2000/svg">
<path fill-rule="evenodd" clip-rule="evenodd" d="M191.813 3.23706e-05L191.813 250.918L191.813 250.919L191.813 280.986C191.813 298.846 182.311 315.358 166.869 324.332L77.9382 376.017C44.7732 395.292 3.1303 371.699 2.61525 333.344L0.00431095 138.905C-0.241005 120.637 9.4712 103.681 25.3536 94.6498L116.896 42.5979C116.991 42.5438 117.086 42.49 117.181 42.4366L191.813 3.23706e-05Z" fill="url(#paint0_linear_854_6302)"/>
<path fill-rule="evenodd" clip-rule="evenodd" d="M182.793 115.857L252.982 78.7568L253.672 196.074L253.667 196.074L254.148 242.998C254.331 260.792 245.068 277.348 229.81 286.503L176.219 318.658L176.231 318.851L75.9606 377.008C83.3138 371.994 99.0229 357.154 99.0229 333.892L99.0229 219.583L99.023 219.583L99.023 192.597C99.023 174.567 108.704 157.926 124.376 149.014L178.396 118.297C179.844 117.474 181.307 116.732 182.782 116.068L182.793 115.857Z" fill="url(#paint1_linear_854_6302)"/>
<path d="M320.07 204.565C320.07 194.457 322.116 185.614 326.207 178.033C330.298 170.332 335.893 164.376 342.992 160.165C350.212 155.953 358.273 153.848 367.177 153.848C374.878 153.848 382.038 155.653 388.655 159.262C395.273 162.752 400.327 167.384 403.816 173.16V120.819H420.421V254.379H403.816V235.789C400.568 241.685 395.755 246.558 389.377 250.409C383 254.139 375.54 256.004 366.997 256.004C358.213 256.004 350.212 253.838 342.992 249.506C335.893 245.175 330.298 239.098 326.207 231.277C322.116 223.456 320.07 214.552 320.07 204.565ZM403.816 204.745C403.816 197.285 402.312 190.788 399.304 185.253C396.296 179.718 392.205 175.506 387.031 172.618C381.977 169.61 376.382 168.106 370.246 168.106C364.109 168.106 358.514 169.55 353.46 172.438C348.407 175.326 344.376 179.537 341.368 185.072C338.359 190.607 336.855 197.105 336.855 204.565C336.855 212.145 338.359 218.763 341.368 224.418C344.376 229.953 348.407 234.225 353.46 237.233C358.514 240.121 364.109 241.565 370.246 241.565C376.382 241.565 381.977 240.121 387.031 237.233C392.205 234.225 396.296 229.953 399.304 224.418C402.312 218.763 403.816 212.205 403.816 204.745ZM456.66 139.409C453.531 139.409 450.884 138.326 448.718 136.16C446.552 133.994 445.469 131.347 445.469 128.219C445.469 125.09 446.552 122.443 448.718 120.277C450.884 118.111 453.531 117.028 456.66 117.028C459.668 117.028 462.195 118.111 464.24 120.277C466.406 122.443 467.489 125.09 467.489 128.219C467.489 131.347 466.406 133.994 464.24 136.16C462.195 138.326 459.668 139.409 456.66 139.409ZM464.601 155.472V254.379H448.177V155.472H464.601ZM611.535 153.667C619.236 153.667 626.094 155.292 632.111 158.54C638.127 161.669 642.88 166.422 646.369 172.799C649.859 179.176 651.603 186.937 651.603 196.082V254.379H635.359V198.428C635.359 188.562 632.893 181.041 627.959 175.867C623.146 170.573 616.589 167.926 608.286 167.926C599.743 167.926 592.945 170.693 587.891 176.228C582.838 181.643 580.311 189.524 580.311 199.872V254.379H564.067V198.428C564.067 188.562 561.6 181.041 556.667 175.867C551.854 170.573 545.296 167.926 536.994 167.926C528.451 167.926 521.652 170.693 516.599 176.228C511.545 181.643 509.018 189.524 509.018 199.872V254.379H492.594V155.472H509.018V169.731C512.267 164.557 516.599 160.586 522.013 157.819C527.548 155.051 533.625 153.667 540.242 153.667C548.545 153.667 555.885 155.532 562.262 159.262C568.639 162.992 573.392 168.467 576.52 175.687C579.288 168.708 583.86 163.293 590.237 159.443C596.615 155.592 603.714 153.667 611.535 153.667ZM713.56 256.004C705.979 256.004 699.181 254.74 693.165 252.214C687.149 249.566 682.396 245.957 678.906 241.384C675.417 236.692 673.492 231.337 673.131 225.321H690.096C690.578 230.254 692.864 234.285 696.955 237.414C701.166 240.542 706.641 242.106 713.379 242.106C719.636 242.106 724.57 240.722 728.179 237.955C731.789 235.188 733.594 231.698 733.594 227.487C733.594 223.155 731.669 219.966 727.818 217.921C723.968 215.755 718.012 213.649 709.95 211.604C702.61 209.679 696.594 207.753 691.901 205.828C687.329 203.783 683.358 200.835 679.989 196.984C676.74 193.014 675.116 187.84 675.116 181.462C675.116 176.409 676.62 171.776 679.628 167.565C682.636 163.353 686.908 160.045 692.443 157.638C697.978 155.111 704.295 153.848 711.394 153.848C722.344 153.848 731.188 156.615 737.926 162.15C744.664 167.685 748.274 175.266 748.755 184.892H732.331C731.97 179.718 729.864 175.566 726.014 172.438C722.283 169.31 717.23 167.745 710.853 167.745C704.957 167.745 700.264 169.009 696.775 171.536C693.285 174.062 691.54 177.371 691.54 181.462C691.54 184.711 692.563 187.418 694.609 189.584C696.775 191.63 699.422 193.314 702.55 194.638C705.799 195.841 710.251 197.225 715.906 198.789C723.005 200.714 728.781 202.64 733.233 204.565C737.685 206.37 741.475 209.137 744.604 212.867C747.853 216.597 749.537 221.47 749.657 227.487C749.657 232.901 748.153 237.775 745.145 242.106C742.137 246.438 737.866 249.867 732.331 252.394C726.916 254.801 720.659 256.004 713.56 256.004Z" fill="#202020"/>
<defs>
<linearGradient id="paint0_linear_854_6302" x1="95.0128" y1="-11.1877" x2="82.9802" y2="375.859" gradientUnits="userSpaceOnUse">
<stop stop-color="#FB6C6C"/>
<stop offset="1" stop-color="#AB0000"/>
</linearGradient>
<linearGradient id="paint1_linear_854_6302" x1="149.705" y1="397.618" x2="254.989" y2="24.6106" gradientUnits="userSpaceOnUse">
<stop stop-color="#FF3F3F"/>
<stop offset="1" stop-color="#BDBFBF"/>
</linearGradient>
</defs>
</svg>
