<svg width="40" height="43" viewBox="0 0 40 43" fill="none" xmlns="http://www.w3.org/2000/svg">
<path fill-rule="evenodd" clip-rule="evenodd" d="M26.0937 9.86436e-05L26.0937 28.0156L26.0929 28.0161L26.0929 31.0688C26.0929 33.2509 24.9365 35.2757 23.0568 36.3846L14.4429 41.4664C10.4045 43.8489 5.33304 40.998 5.27103 36.3106L4.99998 15.8199C4.97045 13.5882 6.15278 11.5091 8.08608 10.3932L16.971 5.26482C17.0006 5.24774 17.0302 5.23095 17.0599 5.21443L26.0937 9.86436e-05Z" fill="url(#paint0_linear_84_1903)"/>
<path fill-rule="evenodd" clip-rule="evenodd" d="M25.0962 12.9333L32.8164 8.79102L32.8914 21.7492L32.943 26.8589C32.9648 29.0145 31.8501 31.0223 30.009 32.1436L25.1799 35.0848C24.9131 35.2473 24.6414 35.3866 24.3665 35.5037L24.3727 35.5982L13.3439 42.0916C14.1526 41.5318 15.8805 39.8749 15.8805 37.2776L15.8805 24.5148L15.8835 24.5093L15.8835 21.7753C15.8835 19.5903 17.0493 17.5712 18.9417 16.4789L23.6911 13.7375C24.146 13.4749 24.6138 13.2782 25.0858 13.1426L25.0962 12.9333Z" fill="url(#paint1_linear_84_1903)"/>
<defs>
<linearGradient id="paint0_linear_84_1903" x1="15.4483" y1="-1.23664" x2="14.1113" y2="41.5489" gradientUnits="userSpaceOnUse">
<stop stop-color="#FB6C6C"/>
<stop offset="1" stop-color="#AB0000"/>
</linearGradient>
<linearGradient id="paint1_linear_84_1903" x1="21.4551" y1="44.3928" x2="33.3612" y2="2.83873" gradientUnits="userSpaceOnUse">
<stop stop-color="#FF3F3F"/>
<stop offset="1" stop-color="#BDBFBF"/>
</linearGradient>
</defs>
</svg>
