<svg width="32" height="32" viewBox="0 0 32 32" fill="none" xmlns="http://www.w3.org/2000/svg">
<path fill-rule="evenodd" clip-rule="evenodd" d="M6.12 3C4.39687 3 3 4.39687 3 6.12V25.88C3 27.6031 4.39687 29 6.12 29H25.88C27.6031 29 29 27.6031 29 25.88V6.12C29 4.39687 27.6031 3 25.88 3H6.12ZM15.3271 17.794C15.4701 17.8798 15.7037 17.9227 16.0278 17.9227C16.3519 17.9227 16.5855 17.8846 16.7285 17.8083C16.8715 17.732 16.9621 17.6272 17.0002 17.4937C17.0383 17.3602 17.0574 17.2172 17.0574 17.0647V16.6488C17.1455 16.6206 17.2504 16.5829 17.372 16.5356C17.5436 16.4593 17.7295 16.3592 17.9297 16.2353C18.1394 16.1018 18.3349 15.935 18.516 15.7348C18.6971 15.5251 18.8449 15.2724 18.9593 14.9769C19.0737 14.6814 19.1309 14.3382 19.1309 13.9473C19.1309 13.3658 18.9927 12.851 18.7162 12.4029C18.4492 11.9548 18.0775 11.5973 17.6008 11.3304C17.1241 11.0635 16.576 10.93 15.9563 10.93C15.5178 10.93 15.1364 10.9872 14.8123 11.1016C14.4881 11.216 14.2117 11.3638 13.9829 11.5449C13.7541 11.7165 13.5682 11.8976 13.4252 12.0883C13.2917 12.2694 13.1868 12.441 13.1106 12.6031C13.0343 12.7556 12.9866 12.87 12.9676 12.9463C12.9009 13.1751 12.8723 13.361 12.8818 13.504C12.8913 13.647 12.958 13.7709 13.082 13.8758C13.2059 13.9711 13.4014 14.0712 13.6683 14.1761C13.9162 14.2714 14.1164 14.3096 14.2689 14.2905C14.4214 14.2619 14.5454 14.1809 14.6407 14.0474C14.7455 13.9139 14.8361 13.7328 14.9124 13.504C14.9601 13.3991 15.0268 13.3038 15.1126 13.218C15.1984 13.1322 15.3128 13.0607 15.4558 13.0035C15.5988 12.9463 15.7656 12.9177 15.9563 12.9177C16.3662 12.9177 16.6713 13.0083 16.8715 13.1894C17.0717 13.361 17.1718 13.6279 17.1718 13.9902C17.1718 14.2381 17.1193 14.4335 17.0145 14.5765C16.9096 14.7195 16.7762 14.8387 16.6141 14.934C16.452 15.0198 16.2804 15.1008 16.0993 15.1771C15.9181 15.2534 15.7466 15.3439 15.5845 15.4488C15.4224 15.5441 15.289 15.6728 15.1841 15.8349C15.0792 15.9874 15.0268 16.1972 15.0268 16.4641V16.9789C15.0268 17.141 15.0411 17.2935 15.0697 17.4365C15.1078 17.5795 15.1936 17.6987 15.3271 17.794ZM15.0697 20.9114C15.2222 21.0925 15.5321 21.1831 15.9992 21.1831C16.3901 21.1831 16.6665 21.1259 16.8286 21.0115C17.0002 20.8876 17.1003 20.7398 17.1289 20.5682C17.167 20.3871 17.1861 20.2059 17.1861 20.0248C17.1861 19.5958 17.1098 19.2955 16.9573 19.1239C16.8143 18.9428 16.4997 18.8522 16.0135 18.8522C15.6226 18.8522 15.3462 18.9094 15.1841 19.0238C15.022 19.1382 14.9219 19.286 14.8838 19.4671C14.8552 19.6482 14.8409 19.8294 14.8409 20.0105C14.8409 20.43 14.9172 20.7303 15.0697 20.9114Z" fill="#BCC0D1"/>
</svg>
