<svg width="32" height="32" viewBox="0 0 32 32" fill="none" xmlns="http://www.w3.org/2000/svg">
<path fill-rule="evenodd" clip-rule="evenodd" d="M6.12 3C4.39687 3 3 4.39687 3 6.12V25.88C3 27.6031 4.39687 29 6.12 29H25.88C27.6031 29 29 27.6031 29 25.88V6.12C29 4.39687 27.6031 3 25.88 3H6.12ZM7.77761 19.4016C7.88317 19.4739 8.05801 19.51 8.30212 19.51C8.54622 19.51 8.72106 19.4739 8.82662 19.4016C8.93218 19.3293 8.99815 19.2373 9.02454 19.1256C9.05093 19.0074 9.06413 18.8858 9.06413 18.761V17.4699H10.3309C10.608 17.4699 10.8883 17.4206 11.172 17.322C11.4557 17.2169 11.7163 17.0658 11.9538 16.8687C12.198 16.665 12.3926 16.412 12.5377 16.1098C12.6895 15.8075 12.7653 15.456 12.7653 15.0552C12.7653 14.6478 12.6895 14.293 12.5377 13.9908C12.3926 13.6885 12.198 13.4356 11.9538 13.2319C11.7163 13.0216 11.4557 12.8672 11.172 12.7687C10.8949 12.6701 10.6178 12.6208 10.3407 12.6208H8.31201C8.0679 12.6208 7.89307 12.657 7.78751 12.7292C7.68195 12.8015 7.61598 12.8968 7.58959 13.0151C7.5632 13.1267 7.55 13.245 7.55 13.3699V18.7511C7.55 18.8759 7.5632 18.9975 7.58959 19.1158C7.61598 19.234 7.67865 19.3293 7.77761 19.4016ZM10.3407 15.9718H9.06413V14.1189H10.3309C10.5156 14.1189 10.6772 14.1583 10.8158 14.2372C10.9609 14.316 11.0731 14.4244 11.1522 14.5624C11.2314 14.7004 11.271 14.8614 11.271 15.0453C11.271 15.2622 11.2215 15.4396 11.1226 15.5775C11.0302 15.7155 10.9114 15.8174 10.7663 15.8831C10.6277 15.9422 10.4859 15.9718 10.3407 15.9718ZM13.6429 19.4016C13.7485 19.4739 13.9167 19.51 14.1477 19.51H15.9092C16.3974 19.51 16.846 19.4213 17.2551 19.2439C17.6707 19.0665 18.0336 18.8234 18.3437 18.5146C18.6538 18.1992 18.8946 17.8312 19.0661 17.4107C19.2376 16.9836 19.3234 16.5237 19.3234 16.0309C19.3234 15.5447 19.2376 15.0946 19.0661 14.6807C18.8946 14.2667 18.6538 13.9054 18.3437 13.5965C18.0336 13.2877 17.674 13.0479 17.265 12.8771C16.8559 12.7062 16.4139 12.6208 15.9389 12.6208H14.1575C13.9134 12.6142 13.7386 12.6471 13.633 12.7194C13.5275 12.7917 13.4615 12.8869 13.4351 13.0052C13.4087 13.1169 13.3955 13.2352 13.3955 13.36V18.7511C13.3955 18.8825 13.412 19.0074 13.445 19.1256C13.478 19.2373 13.544 19.3293 13.6429 19.4016ZM15.9389 18.0021H14.8998V14.1189H15.929C16.2918 14.1189 16.6151 14.2043 16.8988 14.3752C17.1825 14.5394 17.4068 14.7694 17.5718 15.0651C17.7367 15.3607 17.8192 15.6958 17.8192 16.0703C17.8192 16.4449 17.7367 16.7767 17.5718 17.0658C17.4068 17.3549 17.1825 17.5848 16.8988 17.7557C16.6151 17.9199 16.2951 18.0021 15.9389 18.0021ZM20.3327 19.4114C20.4382 19.4771 20.6098 19.51 20.8473 19.51C21.098 19.51 21.2728 19.4771 21.3718 19.4114C21.4774 19.3392 21.5433 19.2472 21.5697 19.1355C21.5961 19.0172 21.6093 18.8957 21.6093 18.7708V16.6913H23.6282C23.7667 16.6913 23.8855 16.6814 23.9844 16.6617C24.09 16.642 24.1724 16.5894 24.2318 16.504C24.2912 16.412 24.3209 16.2609 24.3209 16.0506C24.3209 15.8338 24.2912 15.6794 24.2318 15.5874C24.1724 15.4954 24.09 15.4396 23.9844 15.4199C23.8855 15.4001 23.77 15.3903 23.638 15.3903H21.6093V14.1189H23.558C23.6899 14.1189 23.812 14.109 23.9242 14.0893C24.0429 14.063 24.1386 13.9973 24.2111 13.8922C24.2837 13.7871 24.32 13.6163 24.32 13.3797C24.32 13.13 24.2837 12.9526 24.2111 12.8475C24.1452 12.7424 24.0561 12.68 23.9439 12.6602C23.8318 12.634 23.7097 12.6208 23.5778 12.6208H20.877C20.5867 12.6208 20.3855 12.6734 20.2733 12.7785C20.1612 12.8836 20.1051 13.0808 20.1051 13.3699V18.761C20.1051 18.8858 20.115 19.0074 20.1348 19.1256C20.1612 19.2439 20.2271 19.3392 20.3327 19.4114Z" fill="#EA3434"/>
</svg>
