<svg width="32" height="32" viewBox="0 0 32 32" fill="none" xmlns="http://www.w3.org/2000/svg">
<path fill-rule="evenodd" clip-rule="evenodd" d="M6.12 3C4.39687 3 3 4.39687 3 6.12V25.88C3 27.6031 4.39687 29 6.12 29H25.88C27.6031 29 29 27.6031 29 25.88V6.12C29 4.39687 27.6031 3 25.88 3H6.12ZM12.5589 20.8984C12.7114 21.0033 12.9641 21.0557 13.3168 21.0557C13.6695 21.0557 13.9222 21.0033 14.0747 20.8984C14.2272 20.7935 14.3226 20.6601 14.3607 20.498C14.3988 20.3264 14.4179 20.15 14.4179 19.9689V18.0956H16.2483C16.6487 18.0956 17.0539 18.0241 17.4638 17.8811C17.8737 17.7286 18.2503 17.5093 18.5935 17.2233C18.9462 16.9278 19.2275 16.5607 19.4372 16.1222C19.6565 15.6837 19.7661 15.1736 19.7661 14.5921C19.7661 14.001 19.6565 13.4862 19.4372 13.0477C19.2275 12.6092 18.9462 12.2421 18.5935 11.9466C18.2503 11.6415 17.8737 11.4175 17.4638 11.2745C17.0634 11.1315 16.663 11.06 16.2626 11.06H13.3311C12.9784 11.06 12.7257 11.1124 12.5732 11.2173C12.4207 11.3222 12.3253 11.4604 12.2872 11.632C12.2491 11.7941 12.23 11.9657 12.23 12.1468V19.9546C12.23 20.1357 12.2491 20.3121 12.2872 20.4837C12.3253 20.6553 12.4159 20.7935 12.5589 20.8984ZM16.2626 15.922H14.4179V13.2336H16.2483C16.5152 13.2336 16.7488 13.2908 16.949 13.4052C17.1587 13.5196 17.3208 13.6769 17.4352 13.8771C17.5496 14.0773 17.6068 14.3109 17.6068 14.5778C17.6068 14.8924 17.5353 15.1498 17.3923 15.35C17.2588 15.5502 17.0872 15.698 16.8775 15.7933C16.6773 15.8791 16.4723 15.922 16.2626 15.922Z" fill="#FFB900"/>
</svg>
