<svg width="32" height="32" viewBox="0 0 32 32" fill="none" xmlns="http://www.w3.org/2000/svg">
<path d="M25.9412 3H19.0588C19.5176 3 19.8235 3.30588 19.8235 3.76471C19.8235 4.22353 19.5176 4.52941 19.0588 4.52941H17.5294C17.0706 4.52941 16.7647 4.22353 16.7647 3.76471C16.7647 3.30588 17.0706 3 17.5294 3H6.05882C4.37647 3 3 4.37647 3 6.05882V25.9412C3 27.6235 4.37647 29 6.05882 29H25.9412C27.6235 29 29 27.6235 29 25.9412V6.05882C29 4.37647 27.6235 3 25.9412 3ZM12.9412 4.52941H14.4706C14.9294 4.52941 15.2353 4.83529 15.2353 5.29412C15.2353 5.75294 14.9294 6.05882 14.4706 6.05882H12.9412C12.4824 6.05882 12.1765 5.75294 12.1765 5.29412C12.1765 4.83529 12.4824 4.52941 12.9412 4.52941ZM12.9412 7.58824H14.4706C14.9294 7.58824 15.2353 7.89412 15.2353 8.35294C15.2353 8.81176 14.9294 9.11765 14.4706 9.11765H12.9412C12.4824 9.11765 12.1765 8.81176 12.1765 8.35294C12.1765 7.89412 12.4824 7.58824 12.9412 7.58824ZM12.9412 10.6471H14.4706C14.9294 10.6471 15.2353 10.9529 15.2353 11.4118C15.2353 11.8706 14.9294 12.1765 14.4706 12.1765H12.9412C12.4824 12.1765 12.1765 11.8706 12.1765 11.4118C12.1765 10.9529 12.4824 10.6471 12.9412 10.6471ZM19.8235 18.2941C19.8235 19.9765 18.4471 21.3529 16.7647 21.3529H15.2353C13.5529 21.3529 12.1765 19.9765 12.1765 18.2941V13.7059H19.8235V18.2941ZM19.0588 10.6471H17.5294C17.0706 10.6471 16.7647 10.3412 16.7647 9.88235C16.7647 9.42353 17.0706 9.11765 17.5294 9.11765H19.0588C19.5176 9.11765 19.8235 9.42353 19.8235 9.88235C19.8235 10.3412 19.5176 10.6471 19.0588 10.6471ZM19.0588 7.58824H17.5294C17.0706 7.58824 16.7647 7.28235 16.7647 6.82353C16.7647 6.36471 17.0706 6.05882 17.5294 6.05882H19.0588C19.5176 6.05882 19.8235 6.36471 19.8235 6.82353C19.8235 7.28235 19.5176 7.58824 19.0588 7.58824Z" fill="#FF650F"/>
</svg>
