<svg width="32" height="32" viewBox="0 0 32 32" fill="none" xmlns="http://www.w3.org/2000/svg">
<path fill-rule="evenodd" clip-rule="evenodd" d="M6.12 3C4.39687 3 3 4.39687 3 6.12V25.88C3 27.6031 4.39687 29 6.12 29H25.88C27.6031 29 29 27.6031 29 25.88V6.12C29 4.39687 27.6031 3 25.88 3H6.12ZM10.7951 22.3706C11.0531 22.5 11.1821 22.5 11.4402 22.5C11.6982 22.5 11.8272 22.5 12.0853 22.3706L21.1166 17.1965C21.5036 16.9378 21.7617 16.5498 21.7617 16.0323C21.7617 15.5149 21.5036 15.1269 21.1166 14.8682L12.0853 9.69403C11.6982 9.43532 11.1821 9.43532 10.7951 9.69403C10.408 9.95274 10.15 10.3408 10.15 10.8582V21.2065C10.15 21.7239 10.408 22.1119 10.7951 22.3706ZM17.8911 16.0323L12.7304 19.0075V13.0572L17.8911 16.0323Z" fill="#844FDA"/>
</svg>
