<svg width="32" height="32" viewBox="0 0 32 32" fill="none" xmlns="http://www.w3.org/2000/svg">
<path fill-rule="evenodd" clip-rule="evenodd" d="M6.12 3C4.39687 3 3 4.39687 3 6.12V25.88C3 27.6031 4.39687 29 6.12 29H25.88C27.6031 29 29 27.6031 29 25.88V6.12C29 4.39687 27.6031 3 25.88 3H6.12ZM12.7272 20.9604C12.8702 21.0557 13.0657 21.1034 13.3135 21.1034C13.5805 21.1034 13.7854 21.0509 13.9284 20.9461C14.081 20.8317 14.1906 20.7077 14.2573 20.5743C14.3241 20.4408 14.3622 20.3502 14.3718 20.3026L16.0162 14.9687L17.6607 20.3026C17.6798 20.3502 17.7179 20.4408 17.7751 20.5743C17.8419 20.6982 17.9515 20.8174 18.104 20.9318C18.2566 21.0462 18.4615 21.1034 18.719 21.1034C18.9859 21.1034 19.1861 21.0557 19.3195 20.9604C19.4625 20.865 19.5626 20.7602 19.6199 20.6458C19.6866 20.5218 19.7295 20.4313 19.7485 20.3741L22.4369 12.5806C22.5133 12.3136 22.5465 12.0991 22.5371 11.9371C22.5371 11.7655 22.4798 11.6225 22.3654 11.5081C22.251 11.3937 22.0508 11.284 21.7648 11.1792C21.4979 11.0838 21.2739 11.0457 21.0928 11.0648C20.9211 11.0838 20.7782 11.1601 20.6637 11.2936C20.5589 11.4175 20.4636 11.6129 20.3778 11.8799L18.6046 17.1995L17.0887 11.9228C17.0601 11.856 17.0172 11.7607 16.96 11.6368C16.9028 11.5128 16.798 11.3984 16.6454 11.2936C16.5024 11.1887 16.2832 11.1363 15.9876 11.1363C15.7303 11.1363 15.53 11.1839 15.387 11.2793C15.244 11.3746 15.1392 11.4842 15.0724 11.6082C15.0153 11.7321 14.9724 11.8417 14.9437 11.9371L13.4422 17.1709L11.6548 11.8656C11.569 11.5986 11.4688 11.4032 11.3545 11.2793C11.2496 11.1553 11.1113 11.0886 10.9398 11.0791C10.7777 11.0695 10.5632 11.1077 10.2962 11.1935C9.88632 11.3269 9.63845 11.4938 9.55265 11.694C9.46685 11.8846 9.48592 12.1802 9.60985 12.5806L12.2982 20.3741C12.3173 20.4217 12.3554 20.5075 12.4126 20.6315C12.4794 20.7554 12.5843 20.865 12.7272 20.9604Z" fill="#2684FF"/>
</svg>
